<?xml version="1.0" encoding="iso-8859-1"?>
<!-- Generator: Adobe Illustrator 19.0.0, SVG Export Plug-In . SVG Version: 6.00 Build 0)  -->
<svg version="1.1" id="Capa_1" xmlns="http://www.w3.org/2000/svg" xmlns:xlink="http://www.w3.org/1999/xlink" x="0px" y="0px"
	 viewBox="0 0 512 512" style="enable-background:new 0 0 512 512;" xml:space="preserve">
<path style="fill:#FA4138;" d="M25.6,4.267h187.733c9.429,0,17.067,7.637,17.067,17.067v204.8c0,9.429-7.637,17.067-17.067,17.067
	H25.6c-9.429,0-17.067-7.637-17.067-17.067v-204.8C8.533,11.904,16.171,4.267,25.6,4.267z"/>
<path style="fill:#FC807A;" d="M93.867,4.267h119.467c9.429,0,17.067,7.637,17.067,17.067v204.8c0,9.429-7.637,17.067-17.067,17.067
	H93.867c-9.429,0-17.067-7.637-17.067-17.067v-204.8C76.8,11.904,84.437,4.267,93.867,4.267z"/>
<rect x="102.4" y="200.533" style="fill:#FA4138;" width="17.067" height="17.067"/>
<path style="fill:#FEC007;" d="M315.733,4.267h136.533c28.279,0,51.2,22.921,51.2,51.2v196.267c0,28.279-22.921,51.2-51.2,51.2
	H315.733c-28.279,0-51.2-22.921-51.2-51.2V55.467C264.533,27.187,287.454,4.267,315.733,4.267z"/>
<path style="fill:#FFFFFF;" d="M315.733,38.4h136.533c9.429,0,17.067,7.637,17.067,17.067v128c0,9.429-7.637,17.067-17.067,17.067
	H315.733c-9.429,0-17.067-7.637-17.067-17.067v-128C298.667,46.037,306.304,38.4,315.733,38.4z"/>
<path style="fill:#3F51B4;" d="M384,234.667L384,234.667c9.429,0,17.067,7.637,17.067,17.067l0,0
	c0,9.429-7.637,17.067-17.067,17.067l0,0c-9.429,0-17.067-7.637-17.067-17.067l0,0C366.933,242.304,374.571,234.667,384,234.667z"/>
<path style="fill:#FC807A;" d="M418.133,405.333c-52.634,0-93.867,22.494-93.867,51.2s41.233,51.2,93.867,51.2
	S512,485.239,512,456.533S470.767,405.333,418.133,405.333z"/>
<g>
	<rect x="298.667" y="439.467" style="fill:#FA4138;" width="34.133" height="34.133"/>
	<rect x="102.4" y="166.4" style="fill:#FA4138;" width="17.067" height="17.067"/>
	<rect x="102.4" y="132.267" style="fill:#FA4138;" width="17.067" height="17.067"/>
	<rect x="102.4" y="98.133" style="fill:#FA4138;" width="17.067" height="17.067"/>
	<rect x="102.4" y="64" style="fill:#FA4138;" width="17.067" height="17.067"/>
	<rect x="102.4" y="29.867" style="fill:#FA4138;" width="17.067" height="17.067"/>
</g>
<g>
	<path style="fill:#2195F2;" d="M366.933,362.667H145.067c-14.14,0-25.6-11.46-25.6-25.6V243.2h17.067v93.867
		c0,4.71,3.823,8.533,8.533,8.533h221.867c4.71,0,8.533-3.823,8.533-8.533v-34.133h17.067v34.133
		C392.533,351.206,381.073,362.667,366.933,362.667z"/>
	<path style="fill:#2195F2;" d="M298.667,465.067H25.6c-14.14,0-25.6-11.46-25.6-25.6c0-14.14,11.46-25.6,25.6-25.6h179.2
		c4.71,0,8.533-3.823,8.533-8.533s-3.823-8.533-8.533-8.533H25.6C11.46,396.8,0,385.34,0,371.2s11.46-25.6,25.6-25.6h51.2
		c4.71,0,8.533-3.823,8.533-8.533V243.2H102.4v93.867c0,14.14-11.46,25.6-25.6,25.6H25.6c-4.71,0-8.533,3.823-8.533,8.533
		s3.823,8.533,8.533,8.533h179.2c14.14,0,25.6,11.46,25.6,25.6c0,14.14-11.46,25.6-25.6,25.6H25.6c-4.71,0-8.533,3.823-8.533,8.533
		c0,4.71,3.823,8.533,8.533,8.533h273.067V465.067z"/>
</g>
<path style="fill:#FA4138;" d="M384,140.8l-38.4-38.4c-7.066-7.066-7.074-18.526,0-25.6l0,0l0,0c7.066-7.066,18.526-7.074,25.6,0
	l0,0L384,89.6l12.8-12.8c7.066-7.066,18.526-7.074,25.6,0l0,0l0,0c7.066,7.066,7.074,18.526,0,25.6l0,0L384,140.8z"/>
<g>
	<rect x="324.267" y="157.867" style="fill:#3F51B4;" width="34.133" height="17.067"/>
	<rect x="409.6" y="157.867" style="fill:#3F51B4;" width="34.133" height="17.067"/>
</g>
<g>
</g>
<g>
</g>
<g>
</g>
<g>
</g>
<g>
</g>
<g>
</g>
<g>
</g>
<g>
</g>
<g>
</g>
<g>
</g>
<g>
</g>
<g>
</g>
<g>
</g>
<g>
</g>
<g>
</g>
</svg>
