<?xml version="1.0" encoding="iso-8859-1"?>
<!-- Generator: Adobe Illustrator 22.1.0, SVG Export Plug-In . SVG Version: 6.00 Build 0)  -->
<svg xmlns="http://www.w3.org/2000/svg" xmlns:xlink="http://www.w3.org/1999/xlink" version="1.1" id="Layer_1_1_" x="0px" y="0px" viewBox="0 0 64 64" style="enable-background:new 0 0 64 64;" xml:space="preserve" width="512" height="512">
<linearGradient id="SVGID_1_" gradientUnits="userSpaceOnUse" x1="32" y1="63" x2="32" y2="1.0547">
	<stop offset="0" style="stop-color:#9F2FFF"/>
	<stop offset="1" style="stop-color:#0BB1D3"/>
</linearGradient>
<path style="fill:url(#SVGID_1_);" d="M32,9c-1.654,0-3,1.346-3,3s1.346,3,3,3s3-1.346,3-3S33.654,9,32,9z M32,13  c-0.551,0-1-0.448-1-1s0.449-1,1-1s1,0.448,1,1S32.551,13,32,13z M60,19c1.654,0,3-1.346,3-3s-1.346-3-3-3H42.955  C42.985,12.667,43,12.333,43,12c0-5.681-4.257-10.386-9.901-10.945l-0.197,1.99C37.519,3.503,41,7.353,41,12  c0,0.603-0.061,1.209-0.181,1.802L40.577,15H52v2H36.87c1.325-1.291,2.13-3.075,2.13-5c0-3.859-3.14-7-7-7s-7,3.141-7,7  c0,1.925,0.806,3.709,2.13,5H12v-2h11.423l-0.243-1.198C23.061,13.209,23,12.603,23,12c0-4.647,3.481-8.497,8.099-8.955l-0.197-1.99  C25.257,1.614,21,6.319,21,12c0,0.333,0.015,0.667,0.045,1H4c-1.654,0-3,1.346-3,3s1.346,3,3,3h6v9.679l-4.681,6.553  C2.83,35.944,1,38.235,1,40.95c0,1.589,0.619,3.083,1.743,4.207L11,53.414l8.258-8.257C20.381,44.033,21,42.539,21,40.95  c0-2.715-1.83-5.006-4.319-5.717L12,28.679V19h17v38h-9c-2.757,0-5,2.243-5,5v1h34v-1c0-2.757-2.243-5-5-5h-9V19h17v9.713  L47.758,35.5C44.908,37.264,43,40.41,43,44c0,5.514,4.486,10,10,10s10-4.486,10-10c0-3.59-1.908-6.736-4.758-8.5L54,28.713V19H60z   M54,15h6c0.551,0,1,0.448,1,1s-0.449,1-1,1h-6V15z M4,17c-0.551,0-1-0.448-1-1s0.449-1,1-1h6v2H4z M19,40.95  c0,1.055-0.411,2.047-1.157,2.793L11,50.586l-6.843-6.843C3.411,42.997,3,42.005,3,40.95C3,38.772,4.772,37,6.95,37  c1.055,0,2.047,0.411,2.793,1.157L11,39.414l1.258-1.257C13.003,37.411,13.995,37,15.05,37C17.228,37,19,38.772,19,40.95z   M14.119,35.087c-1.164,0.183-2.245,0.691-3.119,1.505c-0.874-0.814-1.955-1.322-3.119-1.505L11,30.721L14.119,35.087z M44,59  c1.304,0,2.416,0.836,2.829,2H17.171c0.413-1.164,1.525-2,2.829-2H44z M33,25v28h-2V25H33z M31,23v-2h2v2H31z M33,55v2h-2v-2H33z   M33.667,16.709L33,16.944V19h-2v-2.056l-0.667-0.235C28.34,16.003,27,14.11,27,12c0-2.757,2.243-5,5-5s5,2.243,5,5  C37,14.11,35.66,16.003,33.667,16.709z M61,44c0,4.411-3.589,8-8,8s-8-3.589-8-8s3.589-8,8-8S61,39.589,61,44z M55.084,34.222  C54.411,34.079,53.715,34,53,34s-1.411,0.079-2.084,0.222L53,30.887L55.084,34.222z M50,38v3h-3v6h3v3h6v-3h3v-6h-3v-3H50z M57,43v2  h-3v3h-2v-3h-3v-2h3v-3h2v3H57z"/>
</svg>
