<?xml version="1.0" encoding="iso-8859-1"?>
<!-- Generator: Adobe Illustrator 19.0.0, SVG Export Plug-In . SVG Version: 6.00 Build 0)  -->
<svg xmlns="http://www.w3.org/2000/svg" xmlns:xlink="http://www.w3.org/1999/xlink" version="1.1" id="Layer_1" x="0px" y="0px" viewBox="0 0 512 512" style="enable-background:new 0 0 512 512;" xml:space="preserve" width="512" height="512">
<g>
	<path style="fill:#FF637B;" d="M403.001,90C374.801,35.099,318.1,0,256,0S137.199,35.099,108.999,90H0v422h512V90H403.001z"/>
	<path style="fill:#E63950;" d="M512,90v422H256V0c62.1,0,118.801,35.099,147.001,90H512z"/>
	<path style="fill:#E0F4FF;" d="M361,165v45h-75c0-11.1-6.301-20.099-15-25.499L256,150l-15,34.501c-8.699,5.4-15,14.399-15,25.499   h-75v-45c0-57.9,47.1-105,105-105S361,107.1,361,165z"/>
	<path style="fill:#BBDCFF;" d="M361,165v45h-75c0-11.1-6.301-20.099-15-25.499L256,150V60C313.9,60,361,107.1,361,165z"/>
	<path style="fill:#766E6E;" d="M271,120v64.501c-4.501-2.701-9.3-4.501-15-4.501s-10.499,1.8-15,4.501V120H271z"/>
	<path style="fill:#5B5555;" d="M271,120v64.501c-4.501-2.701-9.3-4.501-15-4.501v-60H271z"/>
	<path style="fill:#E63950;" d="M136,451c-18.94,0-36.167-8.818-47.256-24.185c-23.761-32.969-3.462-60.41-1.523-71.88   c1.919-5.757,1.919-12.114,0-17.871c-1.613-9.545-21.555-39.857,1.523-71.88c11.089-15.366,29.172-24.049,47.256-24.049   c18.084,0,36.167,8.683,47.256,24.049c23.761,32.969,3.462,60.41,1.523,71.88c-1.919,5.757-1.919,12.114,0,17.871   c1.613,9.545,21.555,39.857-1.523,71.88C172.167,442.182,154.94,451,136,451z"/>
	<path style="fill:#AE2538;" d="M376,451c-39.729,0-67.861-38.816-55.254-76.67l6.475-19.395c1.919-5.757,1.919-12.114,0-17.871   c-1.613-9.545-21.555-39.857,1.523-71.88c11.089-15.366,29.172-24.049,47.256-24.049c18.084,0,36.167,8.683,47.256,24.049   c23.761,32.969,3.462,60.41,1.523,71.88c-1.919,5.757-1.919,12.114,0,17.871l6.475,19.395C443.858,412.173,415.739,451,376,451z"/>
	<rect x="241" y="271" style="fill:#E0F4FF;" width="30" height="150"/>
	<rect x="256" y="271" style="fill:#BBDCFF;" width="15" height="150"/>
</g>















</svg>
